<?xml version="1.0" encoding="UTF-8"?>
<svg id="Layer_1" data-name="Layer 1" xmlns="http://www.w3.org/2000/svg" viewBox="0 0 357.14 131.64">
  <defs>
    <style>
      .cls-1 {
        fill: #000;
        stroke-width: 0px;
      }
    </style>
  </defs>
  <path class="cls-1" d="M212.43,42.3c.52-2.77.89-4.72,1.28-6.81,2.87-1.24,4.14-.46,4.12,2.88-.12,22.48.13,44.97-.32,67.44-.31,15.36-8.51,24.17-23.8,25.64-6.33.61-12.92-.38-19.28-1.37-5.09-.8-5.01-1.29-4.55-7.05,12.21,4.5,24.52,7.18,35.76-1.84,6.01-4.82,7.9-14.73,6.43-28.02-1.33.92-2.5,1.7-3.64,2.52-15.67,11.19-36.33,4.2-41.62-14.28-2.62-9.14-2.61-18.49.09-27.62,5.76-19.44,27.26-26.12,43.05-13.53.63.51,1.25,1.03,2.47,2.04ZM212.5,67.76c0-5.33.13-10.66-.08-15.97-.06-1.69-.58-3.7-1.63-4.95-10.66-12.85-30.94-9.81-37.35,5.59-3.08,7.41-3.35,15.15-2.14,23.04,2.92,19.04,20.79,26.56,36.53,15.31,3.15-2.25,5.17-4.73,4.76-9.05-.44-4.62-.1-9.31-.1-13.97Z"/>
  <path class="cls-1" d="M144.73,98.54c-5.84,1.88-3-4.62-5.06-4.59-6.1,2.29-12.03,5.73-18.33,6.62-12.89,1.83-24.04-6.48-27.63-19.43-2.5-9.01-2.47-18.18.13-27.14,5.95-20.45,28.34-26.72,44.36-12.59.21.18.55.22,1.3.5,0-7.1,0-14.01,0-20.92s0-13.6,0-20.76c1.75-.08,3.14-.14,5.23-.24v98.54ZM139.5,67.08c0-4.99.1-9.98-.06-14.96-.05-1.56-.3-3.5-1.25-4.58-10.23-11.75-30.09-12.75-37.42,4.13-3.97,9.16-4.27,18.76-1.45,28.31,4.73,15.98,22.67,21.15,35.43,10.36,3.19-2.7,5.24-5.73,4.82-10.29-.39-4.29-.08-8.64-.08-12.96Z"/>
  <path class="cls-1" d="M73.47,93.17c1.33,2.9.38,4.72-2.62,5.6-9.84,2.88-19.93,3.8-29.19-.92-4.75-2.42-9.56-6.63-12-11.27-6.65-12.6-6.63-25.99-.25-38.83,5.8-11.67,18.64-16.62,30.91-12.47,7.11,2.4,11.96,7.36,13.88,14.55,1.4,5.23,1.8,10.73,2.78,16.92H31.14c-2.45,23.3,11.56,31.82,42.33,26.43ZM31.14,61.66h39.18c.66-13.29-5.88-22.13-16.61-22.8-12.65-.78-21.74,8.3-22.57,22.8Z"/>
  <path class="cls-1" d="M285.47,93.02c1.33,3.37.04,4.99-2.87,5.84-9.35,2.73-18.72,3.07-27.94-.29-5.99-2.19-10.64-6.27-13.35-12.1-5.85-12.61-6.19-25.49-.27-38.07,5.54-11.78,17.53-16.86,30.07-13.43,6.28,1.72,11.46,5.32,13.59,11.45,2.18,6.28,3.1,13,4.76,20.34h-46.16c-1.89,18.66,9.37,36.16,42.17,26.27ZM282.22,61.7c1.09-13.62-6.13-22.71-17.89-22.86-11.94-.16-21.55,10.34-20.85,22.86h38.74Z"/>
  <path class="cls-1" d="M0,.17h4.93v98.51c-1.67.07-3.11.14-4.93.22V.17Z"/>
  <path class="cls-1" d="M310.01,35.52q3.4-.38,5.21,9.93c7.28-7.11,15.42-11.72,26.2-11.44.08,1.63.15,3.14.24,5.01-8.81.47-16.3,3.14-22.32,9.29-2.81,2.87-4.28,5.97-4.21,10.19.24,13.29.09,26.58.09,40.13-1.93.1-3.38.17-5.21.27v-63.39Z"/>
  <path class="cls-1" d="M349.5,98.64v-8.34h7.64v8.34h-7.64Z"/>
</svg>